
                  <svg
                    width="26"
                    height="26"
                    viewBox="0 0 25 24"
                    fill="none"
                    xmlns="http://www.w3.org/2000/svg"
                    class="mr-2"
                  >
                    <path
                      d="M.5 12c0-6.627 5.373-12 12-12s12 5.373 12 12-5.373 12-12 12-12-5.373-12-12Z"
                      fill="#D63333"
                    ></path>
                    <path
                      fill-rule="evenodd"
                      clip-rule="evenodd"
                      d="M17.295 10.2H18.8c.385 0 .7.315.7.7 0 .385-.315.7-.7.7H6.2a.702.702 0 0 1-.7-.7c0-.385.315-.7.7-.7h1.505l.998-3.01A1.75 1.75 0 0 1 10.364 6h4.27c.752 0 1.435.473 1.662 1.19l.998 3.01ZM9.367 7.418 8.44 10.2h8.12l-.91-2.782a1.035 1.035 0 0 0-.998-.718h-4.287c-.455 0-.857.28-.998.718ZM6.55 16.85V12.3h11.9v4.55c0 .962-.787 1.75-1.75 1.75H8.3c-.963 0-1.75-.788-1.75-1.75Zm3.465.367c.157 0 .297-.14.297-.314v-2.888c0-.175-.122-.315-.297-.315a.314.314 0 0 0-.315.315v2.887c0 .175.14.316.315.316Zm2.485 0c.175 0 .315-.14.315-.314v-2.888a.314.314 0 0 0-.315-.315.314.314 0 0 0-.315.315v2.887c0 .175.14.316.315.316Zm2.485 0c.175 0 .315-.14.315-.314v-2.888a.314.314 0 0 0-.315-.315c-.157 0-.297.14-.297.315v2.887c0 .175.122.316.297.316Z"
                      fill="#fff"
                    ></path>
                    <mask
                      id="basket-small_svg__a"
                      mask-type="alpha"
                      maskUnits="userSpaceOnUse"
                      x="5"
                      y="6"
                      width="15"
                      height="13"
                    >
                      <path
                        fill-rule="evenodd"
                        clip-rule="evenodd"
                        d="M17.295 10.2H18.8c.385 0 .7.315.7.7 0 .385-.315.7-.7.7H6.2a.702.702 0 0 1-.7-.7c0-.385.315-.7.7-.7h1.505l.998-3.01A1.75 1.75 0 0 1 10.364 6h4.27c.752 0 1.435.473 1.662 1.19l.998 3.01ZM9.367 7.418 8.44 10.2h8.12l-.91-2.782a1.035 1.035 0 0 0-.998-.718h-4.287c-.455 0-.857.28-.998.718ZM6.55 16.85V12.3h11.9v4.55c0 .962-.787 1.75-1.75 1.75H8.3c-.963 0-1.75-.788-1.75-1.75Zm3.465.367c.157 0 .297-.14.297-.314v-2.888c0-.175-.122-.315-.297-.315a.314.314 0 0 0-.315.315v2.887c0 .175.14.316.315.316Zm2.485 0c.175 0 .315-.14.315-.314v-2.888a.314.314 0 0 0-.315-.315.314.314 0 0 0-.315.315v2.887c0 .175.14.316.315.316Zm2.485 0c.175 0 .315-.14.315-.314v-2.888a.314.314 0 0 0-.315-.315c-.157 0-.297.14-.297.315v2.887c0 .175.122.316.297.316Z"
                        fill="#606060"
                      ></path>
                    </mask>
                    <g mask="url(#basket-small_svg__a)">
                      <path fill="#fff" d="M.5 0h24v24H.5z"></path>
                    </g>
                  </svg>
